<svg version="1.1" xmlns="http://www.w3.org/2000/svg" xmlns:xlink="http://www.w3.org/1999/xlink" width="612" height="497" viewBox="0,0,612,497"><g transform="translate(17.5,13.5)"><g data-paper-data="{&quot;isPaintingLayer&quot;:true}" fill-rule="nonzero" stroke-linejoin="miter" stroke-miterlimit="10" stroke-dasharray="" stroke-dashoffset="0" style="mix-blend-mode: normal"><path d="M-17.5,483.5v-497h612v497z" fill="#9966ff" stroke="none" stroke-width="NaN" stroke-linecap="butt"/><path d="M44.81394,34c0,9.38884 -7.08015,17 -15.81395,17c-8.73381,0 -15.81395,-7.61116 -15.81395,-17c0,-9.38884 7.08015,-17 15.81395,-17c8.73381,0 15.81395,7.61116 15.81395,17z" fill="#e2ff00" stroke="#9db100" stroke-width="5.5" stroke-linecap="butt"/><text transform="translate(21.14999,42.77701) scale(0.80992,0.80992)" font-size="40" xml:space="preserve" fill="#9db100" fill-rule="nonzero" stroke="none" stroke-width="1" stroke-linecap="butt" stroke-linejoin="miter" stroke-miterlimit="10" stroke-dasharray="" stroke-dashoffset="0" font-family="Sans Serif" font-weight="normal" text-anchor="start" style="mix-blend-mode: normal"><tspan x="0" dy="0">s</tspan></text><path d="M28.35,21.95l1,23.1" fill="none" stroke="#9db100" stroke-width="2" stroke-linecap="round"/><path d="M436.81395,313c0,9.38884 -7.08015,17 -15.81395,17c-8.73381,0 -15.81395,-7.61116 -15.81395,-17c0,-9.38884 7.08015,-17 15.81395,-17c8.73381,0 15.81395,7.61116 15.81395,17z" fill="#e2ff00" stroke="#9db100" stroke-width="5.5" stroke-linecap="butt"/><text transform="translate(413.15,321.77701) scale(0.80992,0.80992)" font-size="40" xml:space="preserve" fill="#9db100" fill-rule="nonzero" stroke="none" stroke-width="1" stroke-linecap="butt" stroke-linejoin="miter" stroke-miterlimit="10" stroke-dasharray="" stroke-dashoffset="0" font-family="Sans Serif" font-weight="normal" text-anchor="start" style="mix-blend-mode: normal"><tspan x="0" dy="0">s</tspan></text><path d="M420.35,300.95l1,23.1" fill="none" stroke="#9db100" stroke-width="2" stroke-linecap="round"/><path d="M400.81395,53c0,9.38884 -7.08015,17 -15.81395,17c-8.73381,0 -15.81395,-7.61116 -15.81395,-17c0,-9.38884 7.08015,-17 15.81395,-17c8.73381,0 15.81395,7.61116 15.81395,17z" fill="#e2ff00" stroke="#9db100" stroke-width="5.5" stroke-linecap="butt"/><text transform="translate(377.15,61.77701) scale(0.80992,0.80992)" font-size="40" xml:space="preserve" fill="#9db100" fill-rule="nonzero" stroke="none" stroke-width="1" stroke-linecap="butt" stroke-linejoin="miter" stroke-miterlimit="10" stroke-dasharray="" stroke-dashoffset="0" font-family="Sans Serif" font-weight="normal" text-anchor="start" style="mix-blend-mode: normal"><tspan x="0" dy="0">s</tspan></text><path d="M385.35,64.05l-1,-23.1" fill="none" stroke="#9db100" stroke-width="2" stroke-linecap="round"/><path d="M187.81395,95c0,9.38884 -7.08015,17 -15.81395,17c-8.73381,0 -15.81395,-7.61116 -15.81395,-17c0,-9.38884 7.08015,-17 15.81395,-17c8.73381,0 15.81395,7.61116 15.81395,17z" fill="#e2ff00" stroke="#9db100" stroke-width="5.5" stroke-linecap="butt"/><text transform="translate(164.14999,103.77701) scale(0.80992,0.80992)" font-size="40" xml:space="preserve" fill="#9db100" fill-rule="nonzero" stroke="none" stroke-width="1" stroke-linecap="butt" stroke-linejoin="miter" stroke-miterlimit="10" stroke-dasharray="" stroke-dashoffset="0" font-family="Sans Serif" font-weight="normal" text-anchor="start" style="mix-blend-mode: normal"><tspan x="0" dy="0">s</tspan></text><path d="M171.35,82.95l1,23.1" fill="none" stroke="#9db100" stroke-width="2" stroke-linecap="round"/><path d="M376.81395,150c0,9.38884 -7.08015,17 -15.81395,17c-8.73381,0 -15.81395,-7.61116 -15.81395,-17c0,-9.38884 7.08015,-17 15.81395,-17c8.73381,0 15.81395,7.61116 15.81395,17z" fill="#e2ff00" stroke="#9db100" stroke-width="5.5" stroke-linecap="butt"/><text transform="translate(353.15,158.77701) scale(0.80992,0.80992)" font-size="40" xml:space="preserve" fill="#9db100" fill-rule="nonzero" stroke="none" stroke-width="1" stroke-linecap="butt" stroke-linejoin="miter" stroke-miterlimit="10" stroke-dasharray="" stroke-dashoffset="0" font-family="Sans Serif" font-weight="normal" text-anchor="start" style="mix-blend-mode: normal"><tspan x="0" dy="0">s</tspan></text><path d="M361.35,161.05l-1,-23.1" fill="none" stroke="#9db100" stroke-width="2" stroke-linecap="round"/><path d="M89.81395,271c0,9.38884 -7.08015,17 -15.81395,17c-8.73381,0 -15.81395,-7.61116 -15.81395,-17c0,-9.38884 7.08015,-17 15.81395,-17c8.73381,0 15.81395,7.61116 15.81395,17z" fill="#e2ff00" stroke="#9db100" stroke-width="5.5" stroke-linecap="butt"/><text transform="translate(66.14999,279.77701) scale(0.80992,0.80992)" font-size="40" xml:space="preserve" fill="#9db100" fill-rule="nonzero" stroke="none" stroke-width="1" stroke-linecap="butt" stroke-linejoin="miter" stroke-miterlimit="10" stroke-dasharray="" stroke-dashoffset="0" font-family="Sans Serif" font-weight="normal" text-anchor="start" style="mix-blend-mode: normal"><tspan x="0" dy="0">s</tspan></text><path d="M74.35,282.05l-1,-23.1" fill="none" stroke="#9db100" stroke-width="2" stroke-linecap="round"/><path d="M306.81395,63c0,9.38884 -7.08015,17 -15.81395,17c-8.73381,0 -15.81395,-7.61116 -15.81395,-17c0,-9.38884 7.08015,-17 15.81395,-17c8.73381,0 15.81395,7.61116 15.81395,17z" fill="#e2ff00" stroke="#9db100" stroke-width="5.5" stroke-linecap="butt"/><text transform="translate(283.15,71.77701) scale(0.80992,0.80992)" font-size="40" xml:space="preserve" fill="#9db100" fill-rule="nonzero" stroke="none" stroke-width="1" stroke-linecap="butt" stroke-linejoin="miter" stroke-miterlimit="10" stroke-dasharray="" stroke-dashoffset="0" font-family="Sans Serif" font-weight="normal" text-anchor="start" style="mix-blend-mode: normal"><tspan x="0" dy="0">s</tspan></text><path d="M290.35,50.95l1,23.1" fill="none" stroke="#9db100" stroke-width="2" stroke-linecap="round"/><path d="M102.81394,163c0,9.38884 -7.08015,17 -15.81395,17c-8.73381,0 -15.81395,-7.61116 -15.81395,-17c0,-9.38884 7.08015,-17 15.81395,-17c8.73381,0 15.81395,7.61116 15.81395,17z" fill="#e2ff00" stroke="#9db100" stroke-width="5.5" stroke-linecap="butt"/><text transform="translate(79.14999,171.77701) scale(0.80992,0.80992)" font-size="40" xml:space="preserve" fill="#9db100" fill-rule="nonzero" stroke="none" stroke-width="1" stroke-linecap="butt" stroke-linejoin="miter" stroke-miterlimit="10" stroke-dasharray="" stroke-dashoffset="0" font-family="Sans Serif" font-weight="normal" text-anchor="start" style="mix-blend-mode: normal"><tspan x="0" dy="0">s</tspan></text><path d="M86.35,150.95l1,23.1" fill="none" stroke="#9db100" stroke-width="2" stroke-linecap="round"/><path d="M234.81395,259c0,9.38884 -7.08015,17 -15.81395,17c-8.73381,0 -15.81395,-7.61116 -15.81395,-17c0,-9.38884 7.08015,-17 15.81395,-17c8.73381,0 15.81395,7.61116 15.81395,17z" fill="#e2ff00" stroke="#9db100" stroke-width="5.5" stroke-linecap="butt"/><text transform="translate(211.15,267.77701) scale(0.80992,0.80992)" font-size="40" xml:space="preserve" fill="#9db100" fill-rule="nonzero" stroke="none" stroke-width="1" stroke-linecap="butt" stroke-linejoin="miter" stroke-miterlimit="10" stroke-dasharray="" stroke-dashoffset="0" font-family="Sans Serif" font-weight="normal" text-anchor="start" style="mix-blend-mode: normal"><tspan x="0" dy="0">s</tspan></text><path d="M218.35,246.95l1,23.1" fill="none" stroke="#9db100" stroke-width="2" stroke-linecap="round"/><path d="M265.81395,164c0,9.38884 -7.08015,17 -15.81395,17c-8.73381,0 -15.81395,-7.61116 -15.81395,-17c0,-9.38884 7.08015,-17 15.81395,-17c8.73381,0 15.81395,7.61116 15.81395,17z" fill="#e2ff00" stroke="#9db100" stroke-width="5.5" stroke-linecap="butt"/><text transform="translate(242.15,172.77701) scale(0.80992,0.80992)" font-size="40" xml:space="preserve" fill="#9db100" fill-rule="nonzero" stroke="none" stroke-width="1" stroke-linecap="butt" stroke-linejoin="miter" stroke-miterlimit="10" stroke-dasharray="" stroke-dashoffset="0" font-family="Sans Serif" font-weight="normal" text-anchor="start" style="mix-blend-mode: normal"><tspan x="0" dy="0">s</tspan></text><path d="M250.35,175.05l-1,-23.1" fill="none" stroke="#9db100" stroke-width="2" stroke-linecap="round"/><text transform="translate(40.5,140.75) scale(1.34507,2.29848)" font-size="40" xml:space="preserve" fill="#000000" fill-rule="nonzero" stroke="#ff0000" stroke-width="3" stroke-linecap="butt" stroke-linejoin="miter" stroke-miterlimit="10" stroke-dasharray="" stroke-dashoffset="0" font-family="Marker" font-weight="normal" text-anchor="start" style="mix-blend-mode: normal"><tspan x="0" dy="0">colect the coins</tspan></text><text transform="translate(121.5,229.75) scale(0.65168,0.65168)" font-size="40" xml:space="preserve" fill="#000000" fill-rule="nonzero" stroke="none" stroke-width="1" stroke-linecap="butt" stroke-linejoin="miter" stroke-miterlimit="10" stroke-dasharray="" stroke-dashoffset="0" font-family="Marker" font-weight="normal" text-anchor="start" style="mix-blend-mode: normal"><tspan x="0" dy="0">click to continue</tspan></text></g></g></svg>