<svg version="1.1" xmlns="http://www.w3.org/2000/svg" xmlns:xlink="http://www.w3.org/1999/xlink" width="612" height="497" viewBox="0,0,612,497"><g transform="translate(17.5,13.5)"><g data-paper-data="{&quot;isPaintingLayer&quot;:true}" fill-rule="nonzero" stroke-linejoin="miter" stroke-miterlimit="10" stroke-dasharray="" stroke-dashoffset="0" style="mix-blend-mode: normal"><path d="M-17.5,483.5v-497h612v497z" fill="#9966ff" stroke="none" stroke-width="NaN" stroke-linecap="butt"/><path d="M430.81394,47c0,9.38884 -7.08015,17 -15.81395,17c-8.73381,0 -15.81395,-7.61116 -15.81395,-17c0,-9.38884 7.08015,-17 15.81395,-17c8.73381,0 15.81395,7.61116 15.81395,17z" fill="#e2ff00" stroke="#9db100" stroke-width="5.5" stroke-linecap="butt"/><text transform="translate(407.14999,55.77701) scale(0.80992,0.80992)" font-size="40" xml:space="preserve" fill="#9db100" fill-rule="nonzero" stroke="none" stroke-width="1" stroke-linecap="butt" stroke-linejoin="miter" stroke-miterlimit="10" stroke-dasharray="" stroke-dashoffset="0" font-family="Sans Serif" font-weight="normal" text-anchor="start" style="mix-blend-mode: normal"><tspan x="0" dy="0">s</tspan></text><path d="M415.35,58.05l-1,-23.1" fill="none" stroke="#9db100" stroke-width="2" stroke-linecap="round"/><path d="M436.81395,313c0,9.38884 -7.08015,17 -15.81395,17c-8.73381,0 -15.81395,-7.61116 -15.81395,-17c0,-9.38884 7.08015,-17 15.81395,-17c8.73381,0 15.81395,7.61116 15.81395,17z" fill="#e2ff00" stroke="#9db100" stroke-width="5.5" stroke-linecap="butt"/><text transform="translate(413.15,321.77701) scale(0.80992,0.80992)" font-size="40" xml:space="preserve" fill="#9db100" fill-rule="nonzero" stroke="none" stroke-width="1" stroke-linecap="butt" stroke-linejoin="miter" stroke-miterlimit="10" stroke-dasharray="" stroke-dashoffset="0" font-family="Sans Serif" font-weight="normal" text-anchor="start" style="mix-blend-mode: normal"><tspan x="0" dy="0">s</tspan></text><path d="M421.35,324.05l-1,-23.1" fill="none" stroke="#9db100" stroke-width="2" stroke-linecap="round"/><path d="M311.81395,160c0,9.38884 -7.08015,17 -15.81395,17c-8.73381,0 -15.81395,-7.61116 -15.81395,-17c0,-9.38884 7.08015,-17 15.81395,-17c8.73381,0 15.81395,7.61116 15.81395,17z" fill="#e2ff00" stroke="#9db100" stroke-width="5.5" stroke-linecap="butt"/><text transform="translate(288.15,168.77701) scale(0.80992,0.80992)" font-size="40" xml:space="preserve" fill="#9db100" fill-rule="nonzero" stroke="none" stroke-width="1" stroke-linecap="butt" stroke-linejoin="miter" stroke-miterlimit="10" stroke-dasharray="" stroke-dashoffset="0" font-family="Sans Serif" font-weight="normal" text-anchor="start" style="mix-blend-mode: normal"><tspan x="0" dy="0">s</tspan></text><path d="M295.35,147.95l1,23.1" fill="none" stroke="#9db100" stroke-width="2" stroke-linecap="round"/><path d="M241.81395,151c0,9.38884 -7.08015,17 -15.81395,17c-8.73381,0 -15.81395,-7.61116 -15.81395,-17c0,-9.38884 7.08015,-17 15.81395,-17c8.73381,0 15.81395,7.61116 15.81395,17z" fill="#e2ff00" stroke="#9db100" stroke-width="5.5" stroke-linecap="butt"/><text transform="translate(218.14999,159.77701) scale(0.80992,0.80992)" font-size="40" xml:space="preserve" fill="#9db100" fill-rule="nonzero" stroke="none" stroke-width="1" stroke-linecap="butt" stroke-linejoin="miter" stroke-miterlimit="10" stroke-dasharray="" stroke-dashoffset="0" font-family="Sans Serif" font-weight="normal" text-anchor="start" style="mix-blend-mode: normal"><tspan x="0" dy="0">s</tspan></text><path d="M226.35,162.05l-1,-23.1" fill="none" stroke="#9db100" stroke-width="2" stroke-linecap="round"/><path d="M101.81394,127c0,9.38884 -7.08015,17 -15.81395,17c-8.73381,0 -15.81395,-7.61116 -15.81395,-17c0,-9.38884 7.08015,-17 15.81395,-17c8.73381,0 15.81395,7.61116 15.81395,17z" fill="#e2ff00" stroke="#9db100" stroke-width="5.5" stroke-linecap="butt"/><text transform="translate(78.14999,135.77701) scale(0.80992,0.80992)" font-size="40" xml:space="preserve" fill="#9db100" fill-rule="nonzero" stroke="none" stroke-width="1" stroke-linecap="butt" stroke-linejoin="miter" stroke-miterlimit="10" stroke-dasharray="" stroke-dashoffset="0" font-family="Sans Serif" font-weight="normal" text-anchor="start" style="mix-blend-mode: normal"><tspan x="0" dy="0">s</tspan></text><path d="M86.35,138.05l-1,-23.1" fill="none" stroke="#9db100" stroke-width="2" stroke-linecap="round"/><path d="M82.81395,300c0,9.38884 -7.08015,17 -15.81395,17c-8.73381,0 -15.81395,-7.61116 -15.81395,-17c0,-9.38884 7.08015,-17 15.81395,-17c8.73381,0 15.81395,7.61116 15.81395,17z" fill="#e2ff00" stroke="#9db100" stroke-width="5.5" stroke-linecap="butt"/><text transform="translate(59.14999,308.77701) scale(0.80992,0.80992)" font-size="40" xml:space="preserve" fill="#9db100" fill-rule="nonzero" stroke="none" stroke-width="1" stroke-linecap="butt" stroke-linejoin="miter" stroke-miterlimit="10" stroke-dasharray="" stroke-dashoffset="0" font-family="Sans Serif" font-weight="normal" text-anchor="start" style="mix-blend-mode: normal"><tspan x="0" dy="0">s</tspan></text><path d="M67.35,311.05l-1,-23.1" fill="none" stroke="#9db100" stroke-width="2" stroke-linecap="round"/><path d="M472.81395,181c0,9.38884 -7.08015,17 -15.81395,17c-8.73381,0 -15.81395,-7.61116 -15.81395,-17c0,-9.38884 7.08015,-17 15.81395,-17c8.73381,0 15.81395,7.61116 15.81395,17z" fill="#e2ff00" stroke="#9db100" stroke-width="5.5" stroke-linecap="butt"/><text transform="translate(449.15,189.77701) scale(0.80992,0.80992)" font-size="40" xml:space="preserve" fill="#9db100" fill-rule="nonzero" stroke="none" stroke-width="1" stroke-linecap="butt" stroke-linejoin="miter" stroke-miterlimit="10" stroke-dasharray="" stroke-dashoffset="0" font-family="Sans Serif" font-weight="normal" text-anchor="start" style="mix-blend-mode: normal"><tspan x="0" dy="0">s</tspan></text><path d="M456.35,168.95l1,23.1" fill="none" stroke="#9db100" stroke-width="2" stroke-linecap="round"/><path d="M302.81394,20c0,9.38884 -7.08015,17 -15.81395,17c-8.73381,0 -15.81395,-7.61116 -15.81395,-17c0,-9.38884 7.08015,-17 15.81395,-17c8.73381,0 15.81395,7.61116 15.81395,17z" fill="#e2ff00" stroke="#9db100" stroke-width="5.5" stroke-linecap="butt"/><text transform="translate(279.14999,28.77701) scale(0.80992,0.80992)" font-size="40" xml:space="preserve" fill="#9db100" fill-rule="nonzero" stroke="none" stroke-width="1" stroke-linecap="butt" stroke-linejoin="miter" stroke-miterlimit="10" stroke-dasharray="" stroke-dashoffset="0" font-family="Sans Serif" font-weight="normal" text-anchor="start" style="mix-blend-mode: normal"><tspan x="0" dy="0">s</tspan></text><path d="M286.35,7.95l1,23.1" fill="none" stroke="#9db100" stroke-width="2" stroke-linecap="round"/><path d="M284.81395,331c0,9.38884 -7.08015,17 -15.81395,17c-8.73381,0 -15.81395,-7.61116 -15.81395,-17c0,-9.38884 7.08015,-17 15.81395,-17c8.73381,0 15.81395,7.61116 15.81395,17z" fill="#e2ff00" stroke="#9db100" stroke-width="5.5" stroke-linecap="butt"/><text transform="translate(261.15,339.77701) scale(0.80992,0.80992)" font-size="40" xml:space="preserve" fill="#9db100" fill-rule="nonzero" stroke="none" stroke-width="1" stroke-linecap="butt" stroke-linejoin="miter" stroke-miterlimit="10" stroke-dasharray="" stroke-dashoffset="0" font-family="Sans Serif" font-weight="normal" text-anchor="start" style="mix-blend-mode: normal"><tspan x="0" dy="0">s</tspan></text><path d="M268.35,318.95l1,23.1" fill="none" stroke="#9db100" stroke-width="2" stroke-linecap="round"/><path d="M44.81394,42c0,9.38884 -7.08015,17 -15.81395,17c-8.73381,0 -15.81395,-7.61116 -15.81395,-17c0,-9.38884 7.08015,-17 15.81395,-17c8.73381,0 15.81395,7.61116 15.81395,17z" fill="#e2ff00" stroke="#9db100" stroke-width="5.5" stroke-linecap="butt"/><text transform="translate(21.15,50.77701) scale(0.80992,0.80992)" font-size="40" xml:space="preserve" fill="#9db100" fill-rule="nonzero" stroke="none" stroke-width="1" stroke-linecap="butt" stroke-linejoin="miter" stroke-miterlimit="10" stroke-dasharray="" stroke-dashoffset="0" font-family="Sans Serif" font-weight="normal" text-anchor="start" style="mix-blend-mode: normal"><tspan x="0" dy="0">s</tspan></text><path d="M29.35,53.05l-1,-23.1" fill="none" stroke="#9db100" stroke-width="2" stroke-linecap="round"/><text transform="translate(40.5,140.75) scale(1.34507,2.29849)" font-size="40" xml:space="preserve" fill="#000000" fill-rule="nonzero" stroke="#ff0000" stroke-width="3" stroke-linecap="butt" stroke-linejoin="miter" stroke-miterlimit="10" stroke-dasharray="" stroke-dashoffset="0" font-family="Marker" font-weight="normal" text-anchor="start" style="mix-blend-mode: normal"><tspan x="0" dy="0">colect the coins</tspan></text><text transform="translate(121.5,229.75) scale(0.65168,0.65168)" font-size="40" xml:space="preserve" fill="#000000" fill-rule="nonzero" stroke="none" stroke-width="1" stroke-linecap="butt" stroke-linejoin="miter" stroke-miterlimit="10" stroke-dasharray="" stroke-dashoffset="0" font-family="Marker" font-weight="normal" text-anchor="start" style="mix-blend-mode: normal"><tspan x="0" dy="0">click to continue</tspan></text></g></g></svg>