<svg version="1.1" xmlns="http://www.w3.org/2000/svg" xmlns:xlink="http://www.w3.org/1999/xlink" width="37.1279" height="39.5" viewBox="0,0,37.1279,39.5"><g transform="translate(-221.43604,-160.25)"><g data-paper-data="{&quot;isPaintingLayer&quot;:true}" fill-rule="nonzero" stroke-linejoin="miter" stroke-miterlimit="10" stroke-dasharray="" stroke-dashoffset="0" style="mix-blend-mode: normal"><path d="M255.81395,180c0,9.38884 -7.08015,17 -15.81395,17c-8.73381,0 -15.81395,-7.61116 -15.81395,-17c0,-9.38884 7.08015,-17 15.81395,-17c8.73381,0 15.81395,7.61116 15.81395,17z" fill="#e2ff00" stroke="#9db100" stroke-width="5.5" stroke-linecap="butt"/><text transform="translate(231.75,189.74531) scale(0.64793,0.64793)" font-size="40" xml:space="preserve" fill="#9db100" fill-rule="nonzero" stroke="none" stroke-width="1" stroke-linecap="butt" stroke-linejoin="miter" stroke-miterlimit="10" stroke-dasharray="" stroke-dashoffset="0" font-family="Sans Serif" font-weight="normal" text-anchor="start" style="mix-blend-mode: normal"><tspan x="0" dy="0">B</tspan></text><path d="M240.35,191.05l-1,-23.1" fill="none" stroke="#9db100" stroke-width="2" stroke-linecap="round"/><path d="M238.33197,178.9194c-2.90193,-2.31145 -0.01689,-7.3461 2.83909,-4.89812c0.38127,0.13252 0.72057,0.35474 0.99262,0.64141c0.70823,0.45069 0.8669,1.12149 0.68465,1.81296c-0.04185,1.15292 -0.8644,2.10668 -1.95478,2.34843c-0.873,0.50592 -1.85384,0.65906 -2.56158,0.09532z" fill="#e1ff00" stroke="none" stroke-width="0.5" stroke-linecap="butt"/><path d="M237.75909,186.47424c-0.64755,-0.64755 -1.14234,-1.3413 -0.90909,-2.39091c0.41877,-1.88448 3.91404,-4.70043 5.36883,-2.15454c0.73685,0.43488 1.23117,1.23698 1.23117,2.15454c0,1.10795 -0.72074,2.04757 -1.71894,2.37557c-1.09132,1.07271 -2.44391,1.54339 -3.97197,0.01534z" fill="#e1ff00" stroke="none" stroke-width="0.5" stroke-linecap="butt"/></g></g></svg>