<svg version="1.1" xmlns="http://www.w3.org/2000/svg" xmlns:xlink="http://www.w3.org/1999/xlink" width="612" height="497" viewBox="0,0,612,497"><g transform="translate(17.5,13.5)"><g data-paper-data="{&quot;isPaintingLayer&quot;:true}" fill-rule="nonzero" stroke-linejoin="miter" stroke-miterlimit="10" stroke-dasharray="" stroke-dashoffset="0" style="mix-blend-mode: normal"><path d="M-17.5,483.5v-497h612v497z" fill="#9966ff" stroke="none" stroke-width="NaN" stroke-linecap="butt"/><path d="M63.81394,79c0,9.38884 -7.08015,17 -15.81395,17c-8.73381,0 -15.81395,-7.61116 -15.81395,-17c0,-9.38884 7.08015,-17 15.81395,-17c8.73381,0 15.81395,7.61116 15.81395,17z" fill="#e2ff00" stroke="#9db100" stroke-width="5.5" stroke-linecap="butt"/><text transform="translate(40.14999,87.77701) scale(0.80992,0.80992)" font-size="40" xml:space="preserve" fill="#9db100" fill-rule="nonzero" stroke="none" stroke-width="1" stroke-linecap="butt" stroke-linejoin="miter" stroke-miterlimit="10" stroke-dasharray="" stroke-dashoffset="0" font-family="Sans Serif" font-weight="normal" text-anchor="start" style="mix-blend-mode: normal"><tspan x="0" dy="0">s</tspan></text><path d="M47.35,66.95l1,23.1" fill="none" stroke="#9db100" stroke-width="2" stroke-linecap="round"/><path d="M436.81395,313c0,9.38884 -7.08015,17 -15.81395,17c-8.73381,0 -15.81395,-7.61116 -15.81395,-17c0,-9.38884 7.08015,-17 15.81395,-17c8.73381,0 15.81395,7.61116 15.81395,17z" fill="#e2ff00" stroke="#9db100" stroke-width="5.5" stroke-linecap="butt"/><text transform="translate(413.15,321.77701) scale(0.80992,0.80992)" font-size="40" xml:space="preserve" fill="#9db100" fill-rule="nonzero" stroke="none" stroke-width="1" stroke-linecap="butt" stroke-linejoin="miter" stroke-miterlimit="10" stroke-dasharray="" stroke-dashoffset="0" font-family="Sans Serif" font-weight="normal" text-anchor="start" style="mix-blend-mode: normal"><tspan x="0" dy="0">s</tspan></text><path d="M420.35,300.95l1,23.1" fill="none" stroke="#9db100" stroke-width="2" stroke-linecap="round"/><path d="M312.81395,87c0,9.38884 -7.08015,17 -15.81395,17c-8.73381,0 -15.81395,-7.61116 -15.81395,-17c0,-9.38884 7.08015,-17 15.81395,-17c8.73381,0 15.81395,7.61116 15.81395,17z" fill="#e2ff00" stroke="#9db100" stroke-width="5.5" stroke-linecap="butt"/><text transform="translate(289.15,95.77701) scale(0.80992,0.80992)" font-size="40" xml:space="preserve" fill="#9db100" fill-rule="nonzero" stroke="none" stroke-width="1" stroke-linecap="butt" stroke-linejoin="miter" stroke-miterlimit="10" stroke-dasharray="" stroke-dashoffset="0" font-family="Sans Serif" font-weight="normal" text-anchor="start" style="mix-blend-mode: normal"><tspan x="0" dy="0">s</tspan></text><path d="M296.35,74.95l1,23.1" fill="none" stroke="#9db100" stroke-width="2" stroke-linecap="round"/><path d="M213.81395,31c0,9.38884 -7.08015,17 -15.81395,17c-8.73381,0 -15.81395,-7.61116 -15.81395,-17c0,-9.38884 7.08015,-17 15.81395,-17c8.73381,0 15.81395,7.61116 15.81395,17z" fill="#e2ff00" stroke="#9db100" stroke-width="5.5" stroke-linecap="butt"/><text transform="translate(190.14999,39.77701) scale(0.80992,0.80992)" font-size="40" xml:space="preserve" fill="#9db100" fill-rule="nonzero" stroke="none" stroke-width="1" stroke-linecap="butt" stroke-linejoin="miter" stroke-miterlimit="10" stroke-dasharray="" stroke-dashoffset="0" font-family="Sans Serif" font-weight="normal" text-anchor="start" style="mix-blend-mode: normal"><tspan x="0" dy="0">s</tspan></text><path d="M197.35,18.95l1,23.1" fill="none" stroke="#9db100" stroke-width="2" stroke-linecap="round"/><path d="M367.81395,268c0,9.38884 -7.08015,17 -15.81395,17c-8.73381,0 -15.81395,-7.61116 -15.81395,-17c0,-9.38884 7.08015,-17 15.81395,-17c8.73381,0 15.81395,7.61116 15.81395,17z" fill="#e2ff00" stroke="#9db100" stroke-width="5.5" stroke-linecap="butt"/><text transform="translate(344.15,276.77701) scale(0.80992,0.80992)" font-size="40" xml:space="preserve" fill="#9db100" fill-rule="nonzero" stroke="none" stroke-width="1" stroke-linecap="butt" stroke-linejoin="miter" stroke-miterlimit="10" stroke-dasharray="" stroke-dashoffset="0" font-family="Sans Serif" font-weight="normal" text-anchor="start" style="mix-blend-mode: normal"><tspan x="0" dy="0">s</tspan></text><path d="M352.35,279.05l-1,-23.1" fill="none" stroke="#9db100" stroke-width="2" stroke-linecap="round"/><path d="M82.81395,300c0,9.38884 -7.08015,17 -15.81395,17c-8.73381,0 -15.81395,-7.61116 -15.81395,-17c0,-9.38884 7.08015,-17 15.81395,-17c8.73381,0 15.81395,7.61116 15.81395,17z" fill="#e2ff00" stroke="#9db100" stroke-width="5.5" stroke-linecap="butt"/><text transform="translate(59.14999,308.77701) scale(0.80992,0.80992)" font-size="40" xml:space="preserve" fill="#9db100" fill-rule="nonzero" stroke="none" stroke-width="1" stroke-linecap="butt" stroke-linejoin="miter" stroke-miterlimit="10" stroke-dasharray="" stroke-dashoffset="0" font-family="Sans Serif" font-weight="normal" text-anchor="start" style="mix-blend-mode: normal"><tspan x="0" dy="0">s</tspan></text><path d="M66.35,287.95l1,23.1" fill="none" stroke="#9db100" stroke-width="2" stroke-linecap="round"/><path d="M472.81395,181c0,9.38884 -7.08015,17 -15.81395,17c-8.73381,0 -15.81395,-7.61116 -15.81395,-17c0,-9.38884 7.08015,-17 15.81395,-17c8.73381,0 15.81395,7.61116 15.81395,17z" fill="#e2ff00" stroke="#9db100" stroke-width="5.5" stroke-linecap="butt"/><text transform="translate(449.15,189.77701) scale(0.80992,0.80992)" font-size="40" xml:space="preserve" fill="#9db100" fill-rule="nonzero" stroke="none" stroke-width="1" stroke-linecap="butt" stroke-linejoin="miter" stroke-miterlimit="10" stroke-dasharray="" stroke-dashoffset="0" font-family="Sans Serif" font-weight="normal" text-anchor="start" style="mix-blend-mode: normal"><tspan x="0" dy="0">s</tspan></text><path d="M456.35,168.95l1,23.1" fill="none" stroke="#9db100" stroke-width="2" stroke-linecap="round"/><path d="M102.81394,163c0,9.38884 -7.08015,17 -15.81395,17c-8.73381,0 -15.81395,-7.61116 -15.81395,-17c0,-9.38884 7.08015,-17 15.81395,-17c8.73381,0 15.81395,7.61116 15.81395,17z" fill="#e2ff00" stroke="#9db100" stroke-width="5.5" stroke-linecap="butt"/><text transform="translate(79.14999,171.77701) scale(0.80992,0.80992)" font-size="40" xml:space="preserve" fill="#9db100" fill-rule="nonzero" stroke="none" stroke-width="1" stroke-linecap="butt" stroke-linejoin="miter" stroke-miterlimit="10" stroke-dasharray="" stroke-dashoffset="0" font-family="Sans Serif" font-weight="normal" text-anchor="start" style="mix-blend-mode: normal"><tspan x="0" dy="0">s</tspan></text><path d="M86.35,150.95l1,23.1" fill="none" stroke="#9db100" stroke-width="2" stroke-linecap="round"/><path d="M234.81395,259c0,9.38884 -7.08015,17 -15.81395,17c-8.73381,0 -15.81395,-7.61116 -15.81395,-17c0,-9.38884 7.08015,-17 15.81395,-17c8.73381,0 15.81395,7.61116 15.81395,17z" fill="#e2ff00" stroke="#9db100" stroke-width="5.5" stroke-linecap="butt"/><text transform="translate(211.15,267.77701) scale(0.80992,0.80992)" font-size="40" xml:space="preserve" fill="#9db100" fill-rule="nonzero" stroke="none" stroke-width="1" stroke-linecap="butt" stroke-linejoin="miter" stroke-miterlimit="10" stroke-dasharray="" stroke-dashoffset="0" font-family="Sans Serif" font-weight="normal" text-anchor="start" style="mix-blend-mode: normal"><tspan x="0" dy="0">s</tspan></text><path d="M218.35,246.95l1,23.1" fill="none" stroke="#9db100" stroke-width="2" stroke-linecap="round"/><path d="M128.81394,26c0,9.38884 -7.08015,17 -15.81395,17c-8.73381,0 -15.81395,-7.61116 -15.81395,-17c0,-9.38884 7.08015,-17 15.81395,-17c8.73381,0 15.81395,7.61116 15.81395,17z" fill="#e2ff00" stroke="#9db100" stroke-width="5.5" stroke-linecap="butt"/><text transform="translate(105.15,34.77701) scale(0.80992,0.80992)" font-size="40" xml:space="preserve" fill="#9db100" fill-rule="nonzero" stroke="none" stroke-width="1" stroke-linecap="butt" stroke-linejoin="miter" stroke-miterlimit="10" stroke-dasharray="" stroke-dashoffset="0" font-family="Sans Serif" font-weight="normal" text-anchor="start" style="mix-blend-mode: normal"><tspan x="0" dy="0">s</tspan></text><path d="M113.35,37.05l-1,-23.1" fill="none" stroke="#9db100" stroke-width="2" stroke-linecap="round"/><text transform="translate(40.5,140.75) scale(1.34507,2.29849)" font-size="40" xml:space="preserve" fill="#000000" fill-rule="nonzero" stroke="#ff0000" stroke-width="3" stroke-linecap="butt" stroke-linejoin="miter" stroke-miterlimit="10" stroke-dasharray="" stroke-dashoffset="0" font-family="Marker" font-weight="normal" text-anchor="start" style="mix-blend-mode: normal"><tspan x="0" dy="0">colect the coins</tspan></text><text transform="translate(121.5,229.75) scale(0.65168,0.65168)" font-size="40" xml:space="preserve" fill="#000000" fill-rule="nonzero" stroke="none" stroke-width="1" stroke-linecap="butt" stroke-linejoin="miter" stroke-miterlimit="10" stroke-dasharray="" stroke-dashoffset="0" font-family="Marker" font-weight="normal" text-anchor="start" style="mix-blend-mode: normal"><tspan x="0" dy="0">click to continue</tspan></text></g></g></svg>